<svg width="1649" height="990" xmlns="http://www.w3.org/2000/svg" xmlns:xlink="http://www.w3.org/1999/xlink" xml:space="preserve" overflow="hidden"><defs><filter id="fx0" x="-10%" y="-10%" width="120%" height="120%" filterUnits="userSpaceOnUse" primitiveUnits="userSpaceOnUse"><feComponentTransfer color-interpolation-filters="sRGB"><feFuncR type="discrete" tableValues="0 0"/><feFuncG type="discrete" tableValues="0 0"/><feFuncB type="discrete" tableValues="0 0"/><feFuncA type="linear" slope="0.631373" intercept="0"/></feComponentTransfer><feGaussianBlur stdDeviation="6.875 6.875"/></filter><filter id="fx1" x="-10%" y="-10%" width="120%" height="120%" filterUnits="userSpaceOnUse" primitiveUnits="userSpaceOnUse"><feComponentTransfer color-interpolation-filters="sRGB"><feFuncR type="discrete" tableValues="0 0"/><feFuncG type="discrete" tableValues="0 0"/><feFuncB type="discrete" tableValues="0 0"/><feFuncA type="linear" slope="0.631373" intercept="0"/></feComponentTransfer><feGaussianBlur stdDeviation="6.875 6.875"/></filter><filter id="fx2" x="-10%" y="-10%" width="120%" height="120%" filterUnits="userSpaceOnUse" primitiveUnits="userSpaceOnUse"><feComponentTransfer color-interpolation-filters="sRGB"><feFuncR type="discrete" tableValues="0 0"/><feFuncG type="discrete" tableValues="0 0"/><feFuncB type="discrete" tableValues="0 0"/><feFuncA type="linear" slope="0.631373" intercept="0"/></feComponentTransfer><feGaussianBlur stdDeviation="6.875 6.875"/></filter><clipPath id="clip3"><rect x="2393" y="816" width="1649" height="990"/></clipPath><radialGradient cx="2284615" cy="1371600" r="2664724" fx="2284615" fy="1371600" gradientUnits="userSpaceOnUse" spreadMethod="pad" id="fill4" gradientTransform="matrix(0.000360892 0 0 0.000360892 2393 816)"><stop offset="0" stop-color="#595959"/><stop offset="0.02" stop-color="#585858"/><stop offset="0.04" stop-color="#585858"/><stop offset="0.06" stop-color="#585858"/><stop offset="0.08" stop-color="#585858"/><stop offset="0.1" stop-color="#585858"/><stop offset="0.12" stop-color="#585858"/><stop offset="0.14" stop-color="#575757"/><stop offset="0.16" stop-color="#575757"/><stop offset="0.18" stop-color="#565656"/><stop offset="0.2" stop-color="#565656"/><stop offset="0.22" stop-color="#565656"/><stop offset="0.24" stop-color="#555555"/><stop offset="0.26" stop-color="#545454"/><stop offset="0.28" stop-color="#545454"/><stop offset="0.3" stop-color="#535353"/><stop offset="0.32" stop-color="#525252"/><stop offset="0.34" stop-color="#525252"/><stop offset="0.36" stop-color="#515151"/><stop offset="0.38" stop-color="#505050"/><stop offset="0.4" stop-color="#4F4F4F"/><stop offset="0.42" stop-color="#4E4E4E"/><stop offset="0.44" stop-color="#4E4E4E"/><stop offset="0.46" stop-color="#4D4D4D"/><stop offset="0.48" stop-color="#4C4C4C"/><stop offset="0.5" stop-color="#4B4B4B"/><stop offset="0.52" stop-color="#4A4A4A"/><stop offset="0.54" stop-color="#484848"/><stop offset="0.56" stop-color="#474747"/><stop offset="0.58" stop-color="#464646"/><stop offset="0.6" stop-color="#454545"/><stop offset="0.62" stop-color="#444444"/><stop offset="0.64" stop-color="#424242"/><stop offset="0.66" stop-color="#414141"/><stop offset="0.68" stop-color="#404040"/><stop offset="0.7" stop-color="#3E3E3E"/><stop offset="0.72" stop-color="#3D3D3D"/><stop offset="0.74" stop-color="#3C3C3C"/><stop offset="0.76" stop-color="#3A3A3A"/><stop offset="0.78" stop-color="#383838"/><stop offset="0.8" stop-color="#373737"/><stop offset="0.82" stop-color="#353535"/><stop offset="0.84" stop-color="#343434"/><stop offset="0.86" stop-color="#323232"/><stop offset="0.88" stop-color="#303030"/><stop offset="0.9" stop-color="#2F2F2F"/><stop offset="0.92" stop-color="#2D2D2D"/><stop offset="0.94" stop-color="#2B2B2B"/><stop offset="0.96" stop-color="#292929"/><stop offset="0.98" stop-color="#272727"/><stop offset="1" stop-color="#262626"/></radialGradient><clipPath id="clip5"><rect x="2392" y="816" width="1650" height="990"/></clipPath><clipPath id="clip6"><rect x="2392" y="816" width="1650" height="990"/></clipPath><clipPath id="clip7"><rect x="2614" y="1087" width="1381" height="511"/></clipPath><clipPath id="clip8"><rect x="-3" y="-3" width="980" height="100"/></clipPath><clipPath id="clip9"><rect x="0" y="0" width="975" height="93"/></clipPath><clipPath id="clip10"><rect x="2614" y="1087" width="1381" height="511"/></clipPath><clipPath id="clip11"><rect x="-3" y="-3" width="980" height="144"/></clipPath><clipPath id="clip12"><rect x="0" y="0" width="975" height="140"/></clipPath><clipPath id="clip13"><rect x="2614" y="1087" width="1381" height="511"/></clipPath><clipPath id="clip14"><rect x="-3" y="-3" width="980" height="343"/></clipPath><clipPath id="clip15"><rect x="0" y="0" width="975" height="337"/></clipPath><clipPath id="clip16"><rect x="2614" y="1087" width="1381" height="511"/></clipPath><clipPath id="clip17"><rect x="2614" y="1087" width="1381" height="511"/></clipPath><clipPath id="clip18"><rect x="2614" y="1087" width="1381" height="511"/></clipPath><clipPath id="clip19"><rect x="2392" y="816" width="1650" height="990"/></clipPath><clipPath id="clip20"><rect x="2392" y="816" width="1650" height="990"/></clipPath><clipPath id="clip21"><rect x="2392" y="816" width="1650" height="990"/></clipPath><clipPath id="clip22"><rect x="2392" y="816" width="1650" height="990"/></clipPath><clipPath id="clip23"><rect x="2392" y="816" width="1650" height="990"/></clipPath><clipPath id="clip24"><rect x="2392" y="816" width="1650" height="990"/></clipPath><clipPath id="clip25"><rect x="2392" y="816" width="1650" height="990"/></clipPath><clipPath id="clip26"><rect x="2392" y="816" width="1650" height="990"/></clipPath><clipPath id="clip27"><rect x="2392" y="816" width="1650" height="990"/></clipPath><clipPath id="clip28"><rect x="2392" y="816" width="1650" height="990"/></clipPath><clipPath id="clip29"><rect x="2392" y="816" width="1650" height="990"/></clipPath><clipPath id="clip30"><rect x="2392" y="816" width="1650" height="990"/></clipPath><clipPath id="clip31"><rect x="2392" y="816" width="1650" height="990"/></clipPath><clipPath id="clip32"><rect x="2392" y="816" width="1650" height="990"/></clipPath><clipPath id="clip33"><rect x="2392" y="816" width="1650" height="990"/></clipPath><clipPath id="clip34"><rect x="2392" y="816" width="1650" height="990"/></clipPath><clipPath id="clip35"><rect x="2392" y="816" width="1650" height="990"/></clipPath><clipPath id="clip36"><rect x="2392" y="816" width="1650" height="990"/></clipPath><clipPath id="clip37"><rect x="2392" y="816" width="1650" height="990"/></clipPath><clipPath id="clip38"><rect x="2392" y="816" width="1650" height="990"/></clipPath></defs><g clip-path="url(#clip3)" transform="translate(-2393 -816)"><rect x="2393" y="816" width="1649" height="990" fill="url(#fill4)"/><g clip-path="url(#clip5)"><path d="M2614.5 1522.55 3992.5 1522.55M2614.5 1450.55 3992.5 1450.55M2614.5 1377.55 3992.5 1377.55M2614.5 1304.54 3992.5 1304.54M2614.5 1232.54 3992.5 1232.54M2614.5 1159.54 3992.5 1159.54M2614.5 1087.5 3992.5 1087.5" stroke="#F2F2F2" stroke-width="3.4375" stroke-linejoin="round" stroke-miterlimit="10" stroke-opacity="0.101961" fill="none"/></g><g clip-path="url(#clip6)"><path d="M2614.5 1595.5 3992.5 1595.5" stroke="#F2F2F2" stroke-width="3.4375" stroke-linejoin="round" stroke-miterlimit="10" stroke-opacity="0.101961" fill="none" fill-rule="evenodd"/></g><g clip-path="url(#clip7)"><g clip-path="url(#clip8)" filter="url(#fx0)" transform="translate(2816 1516)"><g clip-path="url(#clip9)"><path d="M28.5 64.3749 487.609 56.4266 946.5 28.3751" stroke="#5B9BD5" stroke-width="13" stroke-linecap="round" stroke-linejoin="round" stroke-miterlimit="10" fill="none"/></g></g></g><g clip-path="url(#clip10)"><g clip-path="url(#clip11)" filter="url(#fx1)" transform="translate(2816 1447)"><g clip-path="url(#clip12)"><path d="M28.5 111.375 487.609 93.4255 946.5 28.375" stroke="#ED7D31" stroke-width="13" stroke-linecap="round" stroke-linejoin="round" stroke-miterlimit="10" fill="none"/></g></g></g><g clip-path="url(#clip13)"><g clip-path="url(#clip14)" filter="url(#fx2)" transform="translate(2816 1143)"><g clip-path="url(#clip15)"><path d="M28.5 308.375 487.609 246.421 946.5 28.3751" stroke="#A5A5A5" stroke-width="13" stroke-linecap="round" stroke-linejoin="round" stroke-miterlimit="10" fill="none"/></g></g></g><g clip-path="url(#clip16)"><path d="M2844.5 1573.5 3303.61 1565.55 3762.5 1537.5" stroke="#5B9BD5" stroke-width="12.6042" stroke-linecap="round" stroke-linejoin="round" stroke-miterlimit="10" fill="none"/></g><g clip-path="url(#clip17)"><path d="M2844.5 1551.5 3303.61 1533.55 3762.5 1468.5" stroke="#ED7D31" stroke-width="12.6042" stroke-linecap="round" stroke-linejoin="round" stroke-miterlimit="10" fill="none"/></g><g clip-path="url(#clip18)"><path d="M2844.5 1444.5 3303.61 1382.55 3762.5 1164.5" stroke="#A5A5A5" stroke-width="12.6042" stroke-linecap="round" stroke-linejoin="round" stroke-miterlimit="10" fill="none"/></g><g clip-path="url(#clip19)"><text fill="#D9D9D9" font-family="Calibri,Calibri_MSFontService,sans-serif" font-weight="400" font-size="41" transform="matrix(1 0 0 1 2555.69 1607)">0</text></g><g clip-path="url(#clip20)"><text fill="#D9D9D9" font-family="Calibri,Calibri_MSFontService,sans-serif" font-weight="400" font-size="41" transform="matrix(1 0 0 1 2534.79 1534)">20</text></g><g clip-path="url(#clip21)"><text fill="#D9D9D9" font-family="Calibri,Calibri_MSFontService,sans-serif" font-weight="400" font-size="41" transform="matrix(1 0 0 1 2534.79 1462)">40</text></g><g clip-path="url(#clip22)"><text fill="#D9D9D9" font-family="Calibri,Calibri_MSFontService,sans-serif" font-weight="400" font-size="41" transform="matrix(1 0 0 1 2534.79 1389)">60</text></g><g clip-path="url(#clip23)"><text fill="#D9D9D9" font-family="Calibri,Calibri_MSFontService,sans-serif" font-weight="400" font-size="41" transform="matrix(1 0 0 1 2534.79 1316)">80</text></g><g clip-path="url(#clip24)"><text fill="#D9D9D9" font-family="Calibri,Calibri_MSFontService,sans-serif" font-weight="400" font-size="41" transform="matrix(1 0 0 1 2513.89 1244)">100</text></g><g clip-path="url(#clip25)"><text fill="#D9D9D9" font-family="Calibri,Calibri_MSFontService,sans-serif" font-weight="400" font-size="41" transform="matrix(1 0 0 1 2513.89 1171)">120</text></g><g clip-path="url(#clip26)"><text fill="#D9D9D9" font-family="Calibri,Calibri_MSFontService,sans-serif" font-weight="400" font-size="41" transform="matrix(1 0 0 1 2513.89 1099)">140</text></g><g clip-path="url(#clip27)"><text fill="#D9D9D9" font-family="Calibri,Calibri_MSFontService,sans-serif" font-weight="400" font-size="41" transform="matrix(1 0 0 1 2763.43 1660)">800 x 600</text></g><g clip-path="url(#clip28)"><text fill="#D9D9D9" font-family="Calibri,Calibri_MSFontService,sans-serif" font-weight="400" font-size="41" transform="matrix(1 0 0 1 3212.05 1660)">1280 x 720</text></g><g clip-path="url(#clip29)"><text fill="#D9D9D9" font-family="Calibri,Calibri_MSFontService,sans-serif" font-weight="400" font-size="41" transform="matrix(1 0 0 1 3660.68 1660)">1920 x 1080</text></g><g clip-path="url(#clip30)"><text fill="#D9D9D9" font-family="Calibri,Calibri_MSFontService,sans-serif" font-weight="700" font-size="41" transform="matrix(6.12323e-17 -1 1 6.12323e-17 2488.8 1451)">FRAME TIME</text></g><g clip-path="url(#clip31)"><text fill="#F2F2F2" font-family="Calibri,Calibri_MSFontService,sans-serif" font-weight="700" font-size="73" transform="matrix(1 0 0 1 2752.45 921)">Avg Frame Time for Fractal </text></g><g clip-path="url(#clip32)"><text fill="#F2F2F2" font-family="Calibri,Calibri_MSFontService,sans-serif" font-weight="700" font-size="73" transform="matrix(1 0 0 1 3023.53 1010)">Generation</text></g><g clip-path="url(#clip33)"><path d="M2923.5 1740.5 3011.5 1740.5" stroke="#5B9BD5" stroke-width="12.6042" stroke-linecap="round" stroke-linejoin="round" stroke-miterlimit="10" fill="none" fill-rule="evenodd"/></g><g clip-path="url(#clip34)"><text fill="#D9D9D9" font-family="Calibri,Calibri_MSFontService,sans-serif" font-weight="400" font-size="41" transform="matrix(1 0 0 1 3021.27 1752)">100</text></g><g clip-path="url(#clip35)"><path d="M3124.5 1740.5 3212.5 1740.5" stroke="#ED7D31" stroke-width="12.6042" stroke-linecap="round" stroke-linejoin="round" stroke-miterlimit="10" fill="none" fill-rule="evenodd"/></g><g clip-path="url(#clip36)"><text fill="#D9D9D9" font-family="Calibri,Calibri_MSFontService,sans-serif" font-weight="400" font-size="41" transform="matrix(1 0 0 1 3221.97 1752)">1000</text></g><g clip-path="url(#clip37)"><path d="M3346.5 1740.5 3434.5 1740.5" stroke="#A5A5A5" stroke-width="12.6042" stroke-linecap="round" stroke-linejoin="round" stroke-miterlimit="10" fill="none" fill-rule="evenodd"/></g><g clip-path="url(#clip38)"><text fill="#D9D9D9" font-family="Calibri,Calibri_MSFontService,sans-serif" font-weight="400" font-size="41" transform="matrix(1 0 0 1 3443.56 1752)">5000</text></g></g></svg>